<svg xmlns="http://www.w3.org/2000/svg" id="그룹_406" width="58.143" height="20.107" data-name="그룹 406" viewBox="0 0 58.143 20.107">
    <defs>
        <style>
            .cls-1{fill:#272727}.cls-2{fill:#383839}
        </style>
    </defs>
    <path id="패스_925" d="M126.025 213.91c.6 0 .684.463.684 1.3 0 .861-.088 1.28-.684 1.28H107.75v-2.58zm-5.408-2.958v-6.732c0-.4-.176-.485-.485-.485h-9.91v-2.582h10.594a3.251 3.251 0 0 1 1.876 1.015 2.943 2.943 0 0 1 .927 1.589v7.2c0 .508-.53.64-1.523.64-.927-.004-1.479-.137-1.479-.644z" class="cls-1" data-name="패스 925" transform="translate(-107.75 -199.409)"/>
    <path id="패스_926" d="M234.632 195.3h6.668v-1.7h-6.666v-2.384h8.542c.662 0 1.059.309 1.059.993v5.474h-6.665v1.3a.448.448 0 0 0 .486.508h7.107c.508 0 .6.353.6 1.17 0 .839-.088 1.214-.6 1.214h-7.769a3.355 3.355 0 0 1-1.876-1.037 2.962 2.962 0 0 1-.883-1.611zm16.178 13.022c.486 0 .574.508.574 1.258 0 .817-.088 1.236-.574 1.236h-10a3.141 3.141 0 0 1-1.832-1.015 2.831 2.831 0 0 1-.927-1.567v-4.48h3v4.083c0 .331.177.486.508.486zm.132-4.194c0 .574-.684.662-1.5.662-.949 0-1.5-.154-1.5-.662v-13.417h3z" class="cls-1" data-name="패스 926" transform="translate(-213.444 -190.711)"/>
    <path id="패스_927" d="M440.745 210.264c0 .507-.552.64-1.545.64-.927 0-1.5-.11-1.5-.618v-18.253h3.046z" class="cls-1" data-name="패스 927" transform="translate(-382.601 -191.812)"/>
    <path id="패스_928" d="M393.94 253.5v2.869a.319.319 0 0 0 .319.319h2.627a.951.951 0 0 0 .855-.529l.406-.813.089-1.846z" class="cls-1" data-name="패스 928" transform="translate(-346.15 -243.014)"/>
    <path id="패스_929" d="M389.006 204.7a.943.943 0 0 0-.81-.453h-.363l-1.442 1.53 1.346 2.22 2.332-1.48z" class="cls-1" data-name="패스 929" transform="translate(-339.861 -201.989)"/>
    <path id="패스_930" d="M349.655 229.633l-1.241 2.536a1.021 1.021 0 0 0-.045.958l.363.491 2.065.483 1.183-2.742z" class="cls-1" data-name="패스 930" transform="translate(-308.107 -223.133)"/>
    <path id="패스_931" d="M357.509 251.684l-1.913-1.913a.315.315 0 0 0-.542.223v.319h-4.023c.141.285 1.317 2.628 1.332 2.658a.949.949 0 0 0 .854.529h1.836v.319a.315.315 0 0 0 .542.223l1.913-1.913a.308.308 0 0 0 .001-.445z" class="cls-2" data-name="패스 931" transform="translate(-310.407 -239.829)"/>
    <path id="패스_932" d="M368.388 204.25h-2.76a.943.943 0 0 0-.81.453l-1.039 1.679-.249-.153a.318.318 0 0 0-.472.35l.638 2.55a.311.311 0 0 0 .382.229l2.55-.637a.318.318 0 0 0 .089-.58l-.478-.287 2.149-3.604z" class="cls-2" data-name="패스 932" transform="translate(-320.416 -201.989)"/>
    <path id="패스_933" d="M404.915 226.5l-1.086-2.192.417-.25a.318.318 0 0 0-.087-.582l-2.55-.638a.317.317 0 0 0-.386.232l-.638 2.55a.319.319 0 0 0 .473.351l.41-.246 2.207 4.071c.383-.765.257-.285 1.285-2.34a1 1 0 0 0-.045-.956z" class="cls-2" data-name="패스 933" transform="translate(-351.677 -217.467)"/>
</svg>
