<svg xmlns="http://www.w3.org/2000/svg" width="49.328" height="79.618" viewBox="0 0 49.328 79.618">
    <path id="패스_937" fill="#414141" d="M-483.924 439.008c-.72-4.206 1.473-6.038 5.15-7.123 6.691-1.975 13.284-4.279 19.957-6.317 5.087-1.554 7.056-.917 9.735 3.388 7.624 12.253 12.49 25.507 13.423 39.972.253 3.908-.608 7.889-.98 11.835a32.008 32.008 0 0 0 .561 9.687c.623 3.017.57 6.292 1.309 9.411.216.914-.575 1.473-1.411 1.751-2.727.9-5.445 1.837-8.2 2.656-1.358.4-2.579.018-2.743-1.581-.394-3.838-3.913-6.092-4.774-9.711a3.844 3.844 0 0 0-3.041-2.522c-9.286-2.5-15.147-9.256-19.623-17-6.11-10.57-8.272-22.454-9.363-34.446z" data-name="패스 937" transform="translate(484.06 -424.798)"/>
</svg>
