<svg xmlns="http://www.w3.org/2000/svg" width="57.64" height="68.772" viewBox="0 0 57.64 68.772">
    <path id="패스_938" fill="#4e4e4e" d="M-634.378 545.626c-.483-.267-.965-.5-1.419-.787a81.226 81.226 0 0 1-15.322-11.648c-2.137-2.17-2.3-4.089-.45-6.467 4.45-5.726 8.548-11.746 13.27-17.234 4.975-5.783 8.535-12.561 13.719-18.2 3.588-3.905 7.256-7.05 12.769-7.093 1.83-.014 2.513-.755 3.172-2.412.952-2.4 2.686-5.464 5.316-4.849 3.174.743 6.677 2.911 7.9 6.023.986 2.514-1.572 5.022-3.82 6.539-1.3.877-1.823 1.762-1.3 2.984 2.783 6.445-.365 11.488-4.1 16.089-3.284 4.043-7.3 8.041-9.806 12.112-4.309 6.994-9.911 12.953-14.136 19.92-1.291 2.129-2.941 4.315-5.793 5.023z" data-name="패스 938" transform="translate(652.847 -476.853)"/>
</svg>
