<svg width="29" height="26" viewBox="0 0 29 26" fill="none" xmlns="http://www.w3.org/2000/svg">
<path fill-rule="evenodd" clip-rule="evenodd" d="M8.75042 13.4068C8.73627 13.6152 8.77183 13.824 8.85477 14.0192C8.93771 14.2144 9.06613 14.3917 9.23154 14.5393C9.39696 14.687 9.5956 14.8016 9.81433 14.8756C10.0331 14.9496 10.2669 14.9814 10.5004 14.9688H17.5004C17.9642 14.9678 18.4087 14.8029 18.7367 14.5102C19.0646 14.2175 19.2494 13.8208 19.2504 13.4068C19.2646 13.1984 19.229 12.9897 19.1461 12.7945C19.0631 12.5993 18.9347 12.422 18.7693 12.2743C18.6039 12.1267 18.4052 12.0121 18.1865 11.9381C17.9678 11.864 17.7339 11.8323 17.5004 11.8449H10.5004C10.0366 11.8459 9.59211 12.0107 9.26415 12.3034C8.93619 12.5961 8.75148 12.9929 8.75042 13.4068ZM0.000421093 8.72109C-0.0109383 7.6927 0.20763 6.67262 0.643336 5.72054C1.07904 4.76846 1.72313 3.9035 2.53792 3.17629C3.35271 2.44907 4.32182 1.8742 5.38855 1.48533C6.45528 1.09645 7.5982 0.90137 8.75042 0.911509H19.2504C20.4026 0.90137 21.5456 1.09645 22.6123 1.48533C23.679 1.8742 24.6481 2.44907 25.4629 3.17629C26.2777 3.9035 26.9218 4.76846 27.3575 5.72054C27.7932 6.67262 28.0118 7.6927 28.0004 8.72109V24.3402C28.0146 24.5487 27.979 24.7574 27.8961 24.9526C27.8131 25.1478 27.6847 25.3251 27.5193 25.4728C27.3539 25.6204 27.1552 25.735 26.9365 25.809C26.7178 25.8831 26.4839 25.9148 26.2504 25.9022H8.75042C7.5982 25.9123 6.45528 25.7172 5.38855 25.3283C4.32182 24.9395 3.35271 24.3646 2.53792 23.6374C1.72313 22.9102 1.07904 22.0452 0.643336 21.0931C0.20763 20.1411 -0.0109383 19.121 0.000421093 18.0926V8.72109Z" fill="#5FAC9A"/>
</svg>
