<svg xmlns="http://www.w3.org/2000/svg" width="79.664" height="70.557" viewBox="0 0 79.664 70.557">
    <path id="제외_1" stroke="rgba(0,0,0,0)" stroke-miterlimit="10" d="M-13135.483 119.811a86.056 86.056 0 0 0-11.879-3.846 79.9 79.9 0 0 1-12.6-4.178c-2.534-1.167-5.143-2.3-7.665-3.39l-.061-.026c-8.665-3.752-17.625-7.631-25.27-13.734-1.629-1.3-1.416-2.336-1.121-3.767l.085-.422c.873-4.475 3.017-8.457 5.09-12.307v-.005c1.092-2.025 2.221-4.12 3.156-6.278a55.54 55.54 0 0 0 2.828-9.433v-.014a59.449 59.449 0 0 1 2.6-8.911c.839-2.055 1.59-3.245 2.945-3.245a6.514 6.514 0 0 1 2.953 1.063 58.872 58.872 0 0 0 8.81 3.741 72.232 72.232 0 0 1 7.419 3 33.981 33.981 0 0 1 6.949 5.017 41.954 41.954 0 0 0 5.508 4.228c3.042 1.844 6.264 3.467 9.38 5.037a107.506 107.506 0 0 1 11.75 6.551 25.379 25.379 0 0 1 7.742 8.361 8.916 8.916 0 0 1 1.294 3.676 5.558 5.558 0 0 1-.976 3.669 3 3 0 0 1-2.669 1.459 10.159 10.159 0 0 1-2.476-.44c-.285-.075-.578-.151-.862-.218a22.978 22.978 0 0 1-9.123-4.437 4.256 4.256 0 0 0-2.468-1.159c-1.066 0-1.793.918-2.556 2.3-.535.97-1.032 1.978-1.513 2.953a42.409 42.409 0 0 1-2.746 4.985c-.793 1.173-1.055 2.059-.8 2.711.265.679 1.058 1.13 2.651 1.508a15.526 15.526 0 0 1 10.646 7.683c1.827 3.263 1.678 5.688-.483 7.861h-3.01zm-7.25-11.515a4.131 4.131 0 0 0-1.9.468.708.708 0 0 0-.447.6 1.332 1.332 0 0 0 .665 1.029c2.611 1.626 5.654 3.5 8.713 5.186a2.163 2.163 0 0 0 1.008.287 1.565 1.565 0 0 0 1.439-1.178c-1.226-2.03-3.227-3.237-5.162-4.4-.652-.394-1.327-.8-1.963-1.235a4.167 4.167 0 0 0-2.353-.753zm11.072-24.524a1.576 1.576 0 0 0-1.706 1.166c-.444 1.472.762 1.955 1.825 2.382h.011c.236.095.46.185.661.283.891.438 1.821.821 2.721 1.191a22.737 22.737 0 0 1 5.313 2.762 2.134 2.134 0 0 0 1.281.458 1.652 1.652 0 0 0 1.318-.644c.619-.769.128-1.627-.394-2.212-2.352-2.624-4.782-5.337-9.543-5.337-.16 0-.324 0-.487.009a.6.6 0 0 1-.06 0c-.081 0-.189-.011-.316-.024l-.081-.008a5.23 5.23 0 0 0-.543-.025z" data-name="제외 1" transform="translate(13194.704 -49.755)"/>
</svg>
