<svg width="22" height="22" viewBox="0 0 22 22" fill="none" xmlns="http://www.w3.org/2000/svg">
<path d="M2 20V17.75C2 15.275 6.05 13.25 11 13.25C15.95 13.25 20 15.275 20 17.75V20H2ZM6.5 7.5C6.5 6.60999 6.76392 5.73996 7.25839 4.99994C7.75285 4.25991 8.45566 3.68314 9.27792 3.34254C10.1002 3.00195 11.005 2.91283 11.8779 3.08647C12.7508 3.2601 13.5526 3.68869 14.182 4.31802C14.8113 4.94736 15.2399 5.74918 15.4135 6.6221C15.5872 7.49501 15.4981 8.39981 15.1575 9.22208C14.8169 10.0443 14.2401 10.7471 13.5001 11.2416C12.76 11.7361 11.89 12 11 12C9.80653 12 8.66193 11.5259 7.81802 10.682C6.97411 9.83807 6.5 8.69348 6.5 7.5Z" fill="#DBDBDB"/>
</svg>
