<svg width="22" height="22" viewBox="0 0 22 22" fill="none" xmlns="http://www.w3.org/2000/svg">
<path d="M12.9931 4.66797L3.13906 14.523L2.02206 19.071C1.99136 19.1962 1.99346 19.3272 2.02816 19.4514C2.06286 19.5756 2.12899 19.6887 2.22016 19.7799C2.31133 19.871 2.42446 19.9372 2.54863 19.9719C2.67281 20.0066 2.80383 20.0087 2.92906 19.978L7.47706 18.86L17.3321 9.00497L12.9931 4.66797ZM3.44406 18.56L3.82806 16.996L5.00806 18.176L3.44406 18.56Z" fill="#DBDBDB"/>
<path d="M19.6682 5.06724L16.9331 2.33224C16.7206 2.12071 16.433 2.00195 16.1331 2.00195C15.8333 2.00195 15.5456 2.12071 15.3331 2.33224L14.2441 3.42124L18.5791 7.76024L19.6682 6.67124C19.7735 6.56593 19.857 6.4409 19.9141 6.30329C19.9711 6.16569 20.0004 6.01819 20.0004 5.86924C20.0004 5.72029 19.9711 5.57279 19.9141 5.43518C19.857 5.29757 19.7735 5.17255 19.6682 5.06724Z" fill="#DBDBDB"/>
</svg>
