<svg width="23" height="22" viewBox="0 0 23 22" fill="none" xmlns="http://www.w3.org/2000/svg">
<path d="M19.615 2H10.615C10.0627 2 9.61499 2.44772 9.61499 3V7C9.61499 7.55228 10.0627 8 10.615 8H19.615C20.1673 8 20.615 7.55228 20.615 7V3C20.615 2.44772 20.1673 2 19.615 2Z" fill="#DBDBDB"/>
<path d="M7.61499 2H3.61499C3.06271 2 2.61499 2.44772 2.61499 3V7C2.61499 7.55228 3.06271 8 3.61499 8H7.61499C8.16727 8 8.61499 7.55228 8.61499 7V3C8.61499 2.44772 8.16727 2 7.61499 2Z" fill="#DBDBDB"/>
<path d="M19.615 9H3.61499C3.06271 9 2.61499 9.44772 2.61499 10V15C2.61499 15.5523 3.06271 16 3.61499 16H19.615C20.1673 16 20.615 15.5523 20.615 15V10C20.615 9.44772 20.1673 9 19.615 9Z" fill="#DBDBDB"/>
<path d="M19.615 17H3.61499C3.06271 17 2.61499 17.4477 2.61499 18V19C2.61499 19.5523 3.06271 20 3.61499 20H19.615C20.1673 20 20.615 19.5523 20.615 19V18C20.615 17.4477 20.1673 17 19.615 17Z" fill="#DBDBDB"/>
</svg>
