<svg xmlns="http://www.w3.org/2000/svg" width="37.002" height="47.145" viewBox="0 0 37.002 47.145">
    <g id="그룹_461" data-name="그룹 461" transform="translate(-7.644 -80.875)">
        <path id="패스_942" fill="#9d9d9d" d="M-795.428 568.806c-1.942-2.292-3.812-4.652-5.854-6.851-1.077-1.159-2.1-2.511-2.051-3.91.294-8.129-6.024-12.5-10.137-18.06a96.284 96.284 0 0 0-8.21-9.135c-1.692-1.762-2.981-3.938-1-5.666 2.295-2 3.64.726 4.718 2.265 4.761 6.8 9.391 13.7 14.044 20.576.858 1.27 1.709 2.543 3.327 2.851 5.979 1.139 8.766 5.546 10.955 10.586.068 1.668-1 1.352-1.878.958-1.01-.453-1.6-1.465-2.437-2.171-.888-.753-1.885-1.307-2.916-.366-.916.839-.332 1.762.153 2.6.756 1.3 1.9 2.354 2.583 3.692.697 1.351 1.02 2.686-1.297 2.631z" data-name="패스 942" transform="translate(831.325 -443.603)"/>
        <path id="패스_944" fill="#838383" d="M-790.226 575.853c1.118-.473 1.45-1.1.557-2.146-1.048-1.234-2.021-2.533-3-3.821-1.023-1.341-2.042-2.646-.1-4.132 1.878-1.44 3.228-1.054 4.936.512.924.847.936 3.645 3.406 2.244 4.207 4.52 4.018 6.625-1.185 9.685-2.441 1.432-3.521-.673-4.614-2.342z" data-name="패스 944" transform="translate(826.123 -450.65)"/>
    </g>
</svg>
