<svg xmlns="http://www.w3.org/2000/svg" xmlns:xlink="http://www.w3.org/1999/xlink" width="138.43" height="142.132" viewBox="0 0 138.43 142.132">
    <defs>
        <linearGradient id="linear-gradient" x2="1" y1=".5" y2=".5" gradientUnits="objectBoundingBox">
            <stop offset="0" stop-color="#73d2ba"/>
            <stop offset="1" stop-color="#4f8e81"/>
        </linearGradient>
        <linearGradient id="linear-gradient-2" x1=".5" x2=".5" y1="-.025" y2="1.139" gradientUnits="objectBoundingBox">
            <stop offset=".007" stop-color="#2b4f46"/>
            <stop offset="1" stop-color="#4f8e81"/>
        </linearGradient>
        <linearGradient id="linear-gradient-4" x1="1.131" x2=".451" y1=".659" y2=".42" gradientUnits="objectBoundingBox">
            <stop offset=".127" stop-color="#d7e1ea"/>
            <stop offset=".194" stop-color="#cdd6de"/>
            <stop offset=".289" stop-color="#c7d0d7"/>
            <stop offset=".555" stop-color="#c6cfd6"/>
            <stop offset="1" stop-color="#d7e1ea"/>
        </linearGradient>
        <linearGradient id="linear-gradient-5" x1=".818" x2="-.023" y1=".353" y2=".975" gradientUnits="objectBoundingBox">
            <stop offset="0" stop-color="#73d2ba" stop-opacity="0"/>
            <stop offset="1" stop-color="#4f8e81"/>
        </linearGradient>
        <linearGradient id="linear-gradient-6" x1=".142" x2="1.006" y1=".33" y2=".925" xlink:href="#linear-gradient-5"/>
        <linearGradient id="linear-gradient-7" x1=".505" x2=".512" y1=".075" y2="1.106" gradientUnits="objectBoundingBox">
            <stop offset="0" stop-color="#2b4f46"/>
            <stop offset="1" stop-color="#4f8e81"/>
        </linearGradient>
        <radialGradient id="radial-gradient" cx=".5" cy=".5" r=".564" fx=".68" fy=".357" gradientTransform="matrix(-.927 0 0 1 .963 0)" gradientUnits="objectBoundingBox">
            <stop offset="0" stop-color="#90f2da"/>
            <stop offset="0" stop-color="#81e1c9"/>
            <stop offset=".486" stop-color="#72d0b8"/>
            <stop offset=".661" stop-color="#6ec9b2"/>
            <stop offset=".786" stop-color="#68bda8"/>
            <stop offset=".887" stop-color="#5fac9a"/>
            <stop offset=".972" stop-color="#539688"/>
            <stop offset="1" stop-color="#4f8e81"/>
        </radialGradient>
        <radialGradient id="radial-gradient-2" cx=".5" cy=".5" r=".5" gradientTransform="matrix(-1 0 0 1 1 0)" gradientUnits="objectBoundingBox">
            <stop offset="0" stop-color="#d27373"/>
            <stop offset="1" stop-color="#d27373" stop-opacity="0"/>
        </radialGradient>
        <radialGradient id="radial-gradient-4" cx=".423" cy=".405" r=".683" gradientTransform="rotate(34.562 .5 .5)" gradientUnits="objectBoundingBox">
            <stop offset="0" stop-color="#90f2da"/>
            <stop offset=".09" stop-color="#81e1c9"/>
            <stop offset=".486" stop-color="#72d0b8"/>
            <stop offset=".661" stop-color="#6ec9b2"/>
            <stop offset=".786" stop-color="#68bda8"/>
            <stop offset=".887" stop-color="#5fac9a"/>
            <stop offset=".972" stop-color="#539688"/>
            <stop offset="1" stop-color="#4f8e81"/>
        </radialGradient>
        <radialGradient id="radial-gradient-6" cx=".5" cy=".5" r=".5" fx=".5" fy=".5" xlink:href="#radial-gradient"/>
        <filter id="패스_648" width="53.386" height="51.944" x="85.044" y="90.189" filterUnits="userSpaceOnUse">
            <feOffset dy="3"/>
            <feGaussianBlur result="blur" stdDeviation="3"/>
            <feFlood flood-opacity=".161"/>
            <feComposite in2="blur" operator="in"/>
            <feComposite in="SourceGraphic"/>
        </filter>
        <filter id="패스_649" width="118.15" height="112.351" x="3.751" y="26.949" filterUnits="userSpaceOnUse">
            <feOffset dy="3"/>
            <feGaussianBlur result="blur-2" stdDeviation="3"/>
            <feFlood flood-opacity=".161"/>
            <feComposite in2="blur-2" operator="in"/>
            <feComposite in="SourceGraphic"/>
        </filter>
        <style>
            .cls-3{fill:url(#linear-gradient-2)}.cls-4{fill:#fff}.cls-8{opacity:.361;fill:url(#radial-gradient-2)}
        </style>
    </defs>
    <g id="그룹_404" data-name="그룹 404" transform="rotate(1 9.921 46.956)">
        <g id="그룹_377" data-name="그룹 377" transform="translate(14.122 18.795)">
            <g id="그룹_374" data-name="그룹 374">
                <g filter="url(#패스_648)" transform="translate(-14.94 -18.61)">
                    <path id="패스_648-2" fill="url(#linear-gradient)" d="M28.847 14.335S21.7.395 7.937.009 2.073 11.6 4.04 15.635s-5.207 4.982-2.984 9.7 26.819-4.06 27.791-11z" data-name="패스 648" transform="matrix(-.96 -.29 .29 -.96 121.63 130.13)"/>
                </g>
                <g filter="url(#패스_649)" transform="translate(-14.94 -18.61)">
                    <path id="패스_649-2" fill="url(#radial-gradient)" d="M0 50.738c.237 21.248 21.375 41.6 50.29 41.9 28.218.3 50.754-17.268 48.036-45.357C95.573 18.83 78.51 0 50.29 0S.12 21.812 0 50.738z" data-name="패스 649" transform="rotate(1 -1880.663 839.794)"/>
                </g>
                <circle id="타원_51" cx="2.448" cy="2.448" r="2.448" class="cls-3" data-name="타원 51" transform="translate(54.08 39.322)"/>
                <circle id="타원_52" cx=".612" cy=".612" r=".612" class="cls-4" data-name="타원 52" transform="translate(55.304 39.781)"/>
                <circle id="타원_53" cx="2.448" cy="2.448" r="2.448" class="cls-3" data-name="타원 53" transform="translate(35.144 36.687)"/>
                <path id="패스_650" fill="url(#linear-gradient-4)" d="M37.326 27.342l-14.748 5.645a1.961 1.961 0 0 1-2.439-.922l-6.185-11.788a1.963 1.963 0 0 0-2.018-1.032L3.167 20.5a1.964 1.964 0 0 1-2.2-1.564l-.93-4.68A1.964 1.964 0 0 1 .563 12.5C10.588 2.3 23-2.411 34.1 1.212c12.848 4.195 20.533 18.45 21.012 35.808a1.977 1.977 0 0 1-.578 1.453 1.964 1.964 0 0 1-2.689.08c-3-2.657-10.05-8.728-12.538-10.867a1.961 1.961 0 0 0-1.981-.344z" data-name="패스 650" transform="translate(38.895)"/>
                <path id="패스_651" fill="url(#linear-gradient-5)" d="M25.1 0S12.8 13.827 4.769 15.435s-6.722 12.7 10.163 11.737 23.773-10.129 23.773-10.129" data-name="패스 651" transform="translate(48.607 56.762)"/>
                <path id="패스_652" fill="url(#linear-gradient-6)" d="M10.757 0s9.721 13.157 16.072 14.687 5.313 12.086-8.036 11.168S0 16.217 0 16.217" data-name="패스 652" transform="translate(3.628 54.009)"/>
                <circle id="타원_54" cx=".612" cy=".612" r=".612" class="cls-4" data-name="타원 54" transform="translate(36.368 37.146)"/>
                <circle id="타원_55" cx="6.272" cy="6.272" r="6.272" class="cls-8" data-name="타원 55" transform="translate(57.021 40.172)"/>
                <circle id="타원_56" cx="6.272" cy="6.272" r="6.272" class="cls-8" data-name="타원 56" transform="translate(24.282 35.123)"/>
            </g>
            <g id="그룹_376" data-name="그룹 376" transform="translate(39.396 42.126)">
                <path id="패스_828" fill="url(#linear-gradient-7)" d="M5.56 6.613c3.741.048 6.073-1.359 6.119-4.067A2.694 2.694 0 0 0 9.887.063c-.919-.287-2.42.5-4.281.526C3.884.614 3.251-.085 2.034.214A2.95 2.95 0 0 0 0 2.722c-.045 2.707 1.819 3.844 5.56 3.891z" data-name="패스 828" transform="rotate(7 .403 6.589)"/>
                <path id="교차_1" d="M1.095 0C.626.108.223 1.452 0 2.369q.053.01.11.017a6.012 6.012 0 0 0 1.312-.068c.333-.039.687-.08 1.06-.1C2.087 1.185 1.545 0 1.138 0a.2.2 0 0 0-.043 0z" class="cls-4" data-name="교차 1" transform="rotate(180 5.024 1.762)"/>
            </g>
        </g>
        <ellipse id="타원_61" cx="8.638" cy="8.341" fill="url(#radial-gradient-4)" data-name="타원 61" opacity="0.623" rx="8.638" ry="8.341" transform="translate(0 30.383)"/>
        <circle id="타원_64" cx="4.468" cy="4.468" r="4.468" fill="url(#radial-gradient-4)" data-name="타원 64" opacity="0.466" transform="translate(13.702 13.702)"/>
        <circle id="타원_63" cx="2.085" cy="2.085" r="2.085" fill="url(#radial-gradient-6)" data-name="타원 63" opacity="0.216" transform="translate(9.532)"/>
    </g>
</svg>
