<svg width="28" height="26" viewBox="0 0 28 26" fill="none" xmlns="http://www.w3.org/2000/svg">
<path fill-rule="evenodd" clip-rule="evenodd" d="M23.7083 6.05731C23.1186 5.52411 22.4162 5.10074 21.6417 4.81178C20.8673 4.52282 20.0362 4.37402 19.1968 4.37402C18.3574 4.37402 17.5263 4.52282 16.7519 4.81178C15.9774 5.10074 15.275 5.52411 14.6853 6.05731L13.7973 6.84988L12.9093 6.05731C12.3168 5.52853 11.6135 5.10908 10.8394 4.8229C10.0653 4.53673 9.23567 4.38943 8.3978 4.38943C6.70566 4.38943 5.08283 4.98939 3.8863 6.05731C2.68978 7.12524 2.01758 8.57366 2.01758 10.0839C2.01758 11.5942 2.68978 13.0426 3.8863 14.1106L13.7973 22.9564L23.7083 14.1106C24.3057 13.5843 24.7801 12.9573 25.1038 12.2661C25.4276 11.5749 25.5943 10.8331 25.5943 10.0839C25.5943 9.33474 25.4276 8.59301 25.1038 7.90178C24.7801 7.21056 24.3057 6.58361 23.7083 6.05731Z" fill="#5FAC9A"/>
</svg>
