<svg xmlns="http://www.w3.org/2000/svg" width="54.194" height="59.923" viewBox="0 0 54.194 59.923">
    <path id="패스_941" fill="#585858" d="M.026 7.97c-.2-3.71.765-6.917 4.256-7.816C7.487-.671 9.391 1.957 11 4.514c2.773 4.416 3.985 8.881 1.609 13.924-1.5 3.193.292 6.174 1.341 9.046 3.022 8.287 6.289 16.485 9.411 24.736.688 1.819 1.431 4.187-1 4.912-2.376.707-3.635-1.445-4.185-3.512-2.277-8.559-4.4-17.157-6.7-25.71-.879-3.276-1.985-6.284-5.217-8.412C2.215 16.84-.248 12.871.026 7.97z" data-name="패스 941" transform="rotate(142 19.327 31.895)"/>
</svg>
