<svg width="75" height="26" viewBox="0 0 75 26" fill="none" xmlns="http://www.w3.org/2000/svg">
<path d="M23.463 18.6171C24.228 18.6171 24.341 19.2121 24.341 20.2891C24.341 21.3941 24.228 21.9331 23.463 21.9331H0V18.6181L23.463 18.6171ZM16.52 14.8171V6.17409C16.52 5.66409 16.294 5.55109 15.897 5.55109H3.174V2.23608H16.774C17.6999 2.38651 18.5482 2.84447 19.182 3.53609C19.7864 4.07149 20.2035 4.78643 20.372 5.5761V14.8141C20.372 15.4661 19.692 15.6361 18.417 15.6361C17.229 15.6421 16.52 15.4721 16.52 14.8201V14.8171Z" fill="#333333"/>
<path d="M27.202 5.894H35.76V3.71201H27.202V0.652008H38.17C39.02 0.652008 39.53 1.052 39.53 1.927V8.955H30.97V10.627C30.9582 10.713 30.966 10.8005 30.9927 10.8831C31.0195 10.9656 31.0645 11.0411 31.1245 11.1037C31.1845 11.1664 31.2579 11.2148 31.3392 11.2451C31.4205 11.2755 31.5076 11.287 31.594 11.279H40.718C41.37 11.279 41.483 11.732 41.483 12.779C41.483 13.856 41.37 14.338 40.718 14.338H30.744C29.817 14.1694 28.9707 13.7015 28.335 13.006C27.7474 12.454 27.3507 11.7294 27.202 10.937V5.894ZM47.97 22.612C48.593 22.612 48.707 23.264 48.707 24.227C48.707 25.275 48.594 25.814 47.97 25.814H35.136C34.2265 25.6623 33.3964 25.2035 32.784 24.514C32.1767 23.9927 31.7583 23.2854 31.594 22.502V16.75H35.448V21.989C35.448 22.414 35.675 22.612 36.1 22.612H47.97ZM48.14 17.228C48.14 17.965 47.262 18.078 46.213 18.078C44.995 18.078 44.286 17.878 44.286 17.228V0H48.14V17.228Z" fill="#333333"/>
<path d="M74.648 23.6889C74.648 24.341 73.94 24.511 72.665 24.511C71.475 24.511 70.738 24.37 70.738 23.718V0.282959H74.648V23.6889Z" fill="#333333"/>
<path d="M61.357 13.4619V17.145C61.357 17.2534 61.4001 17.3574 61.4768 17.4341C61.5535 17.5108 61.6575 17.554 61.766 17.554H65.138C65.3665 17.5551 65.5908 17.492 65.7852 17.3719C65.9797 17.2519 66.1366 17.0797 66.238 16.8749L66.76 15.8309L66.874 13.4609L61.357 13.4619Z" fill="#333333"/>
<path d="M63.095 3.48408C62.9865 3.30597 62.8338 3.1589 62.6518 3.05711C62.4698 2.95532 62.2646 2.90226 62.056 2.90309H61.589L59.738 4.86709L61.466 7.71708L64.46 5.81709L63.095 3.48408Z" fill="#333333"/>
<path d="M53.343 8.34497L51.749 11.601C51.6394 11.7856 51.5769 11.9944 51.567 12.2089C51.557 12.4233 51.6 12.637 51.692 12.831L52.158 13.461L54.809 14.081L56.328 10.561L53.343 8.34497Z" fill="#333333"/>
<path d="M60.474 15.221L58.019 12.766C57.9629 12.7064 57.89 12.6651 57.81 12.6477C57.7299 12.6303 57.6465 12.6375 57.5707 12.6685C57.4949 12.6995 57.4303 12.7527 57.3853 12.8212C57.3404 12.8897 57.3172 12.9701 57.319 13.052V13.461H52.154C52.335 13.827 53.845 16.835 53.865 16.874C53.9661 17.079 54.1229 17.2514 54.3175 17.3715C54.512 17.4916 54.7364 17.5545 54.965 17.553H57.326V17.966C57.3242 18.0479 57.3474 18.1284 57.3923 18.1969C57.4372 18.2653 57.5019 18.3186 57.5777 18.3496C57.6535 18.3805 57.737 18.3878 57.817 18.3704C57.897 18.353 57.9699 18.3117 58.026 18.252L60.481 15.797C60.5193 15.7592 60.5495 15.7141 60.5699 15.6644C60.5903 15.6147 60.6006 15.5613 60.5999 15.5075C60.5993 15.4538 60.5878 15.4007 60.5661 15.3515C60.5445 15.3022 60.5131 15.2579 60.474 15.221Z" fill="#383839"/>
<path d="M61.586 2.90309H58.046C57.8374 2.90226 57.6322 2.95532 57.4502 3.05711C57.2682 3.1589 57.1155 3.30597 57.007 3.48408L55.673 5.63908L55.354 5.43908C55.2847 5.39733 55.2045 5.37712 55.1237 5.38102C55.0429 5.38492 54.9651 5.41275 54.9002 5.46098C54.8352 5.50921 54.7861 5.57567 54.759 5.6519C54.7319 5.72812 54.7281 5.81067 54.748 5.88908L55.567 9.16308C55.5793 9.21503 55.6018 9.26401 55.6333 9.30712C55.6647 9.35023 55.7045 9.38661 55.7503 9.4141C55.7961 9.44159 55.8469 9.45965 55.8997 9.4672C55.9526 9.47476 56.0064 9.47165 56.058 9.45808L59.332 8.64009C59.4103 8.62079 59.4811 8.57873 59.5355 8.51921C59.59 8.45968 59.6255 8.38536 59.6377 8.30564C59.6499 8.22592 59.6382 8.14437 59.6041 8.0713C59.57 7.99823 59.515 7.93691 59.446 7.89509L58.832 7.52708C59.103 7.07808 61.315 3.36309 61.586 2.90309Z" fill="#383839"/>
<path d="M68.351 11.6L66.956 8.78603L67.492 8.46404C67.5615 8.42242 67.6171 8.36109 67.6517 8.28783C67.6863 8.21457 67.6984 8.13267 67.6864 8.05254C67.6744 7.9724 67.6389 7.89763 67.5843 7.83772C67.5298 7.77781 67.4586 7.73546 67.38 7.71604L64.106 6.89703C64.0534 6.88316 63.9986 6.87994 63.9448 6.88759C63.891 6.89524 63.8393 6.91358 63.7927 6.94154C63.7461 6.96951 63.7056 7.00652 63.6735 7.0504C63.6414 7.09428 63.6185 7.14414 63.606 7.19704L62.787 10.471C62.7674 10.5495 62.7715 10.632 62.7987 10.7081C62.826 10.7842 62.8753 10.8506 62.9402 10.8987C63.0052 10.9469 63.0829 10.9747 63.1637 10.9787C63.2445 10.9827 63.3246 10.9626 63.394 10.921L63.92 10.605L66.753 15.832C67.244 14.849 67.083 15.467 68.402 12.832C68.497 12.6387 68.5421 12.4247 68.5332 12.2096C68.5243 11.9944 68.4617 11.7848 68.351 11.6Z" fill="#383839"/>
</svg>
