<svg xmlns="http://www.w3.org/2000/svg" width="554" height="584" viewBox="0 0 554 584">
    <defs>
        <radialGradient id="radial-gradient" cx=".5" cy=".5" r=".5" gradientUnits="objectBoundingBox">
            <stop offset="0" stop-color="#fdffe2"/>
            <stop offset="1" stop-color="#78d7bf"/>
        </radialGradient>
    </defs>
    <g id="그룹_475" data-name="그룹 475" opacity="0.858" transform="translate(220 -422)">
        <circle id="타원_66" cx="277" cy="277" r="277" fill="url(#radial-gradient)" data-name="타원 66" opacity="0.693" transform="translate(-220 452)"/>
        <path id="합치기_8" fill="#65b8a4" d="M-12360-2534.074c13.394-24.763 27.548-50.106 42.385-75.8 53.5-92.67 107.448-175.431 154.71-239.318A6.992 6.992 0 0 1-12166-2855a7 7 0 0 1 7-7 6.974 6.974 0 0 1 4.461 1.6q4.449-5.9 8.808-11.562l-.473-.273a2 2 0 0 1 .062-3.5l2.317-1.231a1.985 1.985 0 0 1 1.939.033q5.99-7.7 11.8-14.933a2.987 2.987 0 0 1-.762-1.658l-.245-1.985a3 3 0 0 1 2.611-3.344l1.985-.245a2.99 2.99 0 0 1 1.933.419c16.795-20.546 32.252-37.805 45.956-51.257 26.227-25.743 46.014-37.518 56.362-31.541 8.7 5.022 9.873 22.1 4.565 48.564l-.316-.13c5.249-26.168 4.095-43.043-4.5-48-10.218-5.9-29.764 5.732-55.7 31.181-13.708 13.454-29.208 30.779-46.054 51.412a2.99 2.99 0 0 1 1.092 1.967l.244 1.985a3 3 0 0 1-2.614 3.344l-1.985.245a2.99 2.99 0 0 1-2.291-.678q-5.783 7.207-11.757 14.9a1.967 1.967 0 0 1 .666 1.422l.093 2.624a2 2 0 0 1-3 1.8l-1.577-.909q-4.378 5.693-8.851 11.633A6.981 6.981 0 0 1-12152-2855a7 7 0 0 1-7 7 6.97 6.97 0 0 1-3.542-.961c-47.207 63.88-101.13 146.652-154.643 239.34-14.883 25.78-29.087 51.2-42.521 76.044-.1-.165-.194-.333-.294-.497z" data-name="합치기 8" opacity="0.551" transform="translate(12179 3405)"/>
    </g>
</svg>
