<svg width="101" height="55" viewBox="0 0 101 55" fill="none" xmlns="http://www.w3.org/2000/svg">
<path d="M101 41.3829C100.998 44.8522 99.6193 48.1789 97.1659 50.6318C94.7124 53.0847 91.3853 54.4631 87.916 54.4639H18.386C15.5497 54.4637 12.7543 53.7871 10.2318 52.4901C7.7094 51.1931 5.53271 49.3132 3.88242 47.0063C2.23213 44.6995 1.15586 42.0324 0.742928 39.2262C0.329999 36.4201 0.592329 33.556 1.50814 30.8715C2.42395 28.1871 3.96683 25.7598 6.00871 23.7912C8.0506 21.8226 10.5326 20.3693 13.2486 19.5521C15.9647 18.7349 18.8365 18.5773 21.6257 19.0924C24.4149 19.6075 27.041 20.7805 29.286 22.5139C30.4882 15.8407 34.1444 9.8592 39.5352 5.74641C44.926 1.63361 51.6609 -0.312571 58.4146 0.290863C65.1682 0.894297 71.4515 4.00364 76.0278 9.00699C80.604 14.0103 83.1419 20.5453 83.142 27.3259C83.142 27.9619 83.121 28.5979 83.079 29.2259C85.0641 28.4384 87.2117 28.1485 89.3345 28.3813C91.4574 28.6142 93.4911 29.3627 95.2583 30.5617C97.0256 31.7606 98.4728 33.3737 99.4737 35.2601C100.475 37.1466 100.999 39.2493 101.001 41.3849L101 41.3829Z" fill="#E6F8FC"/>
<path d="M101 41.3819C100.999 44.8514 99.6197 48.1784 97.1662 50.6315C94.7127 53.0846 91.3855 54.4631 87.916 54.4639H18.386C16.0439 54.4637 13.7247 54.0023 11.5609 53.1059C9.39713 52.2095 7.43109 50.8956 5.77505 49.2394C4.11901 47.5832 2.8054 45.617 1.90923 43.4531C1.01306 41.2892 0.551871 38.97 0.552002 36.6279C0.552002 41.5279 6.606 45.9349 11.497 45.9349H50.184C54.8709 45.8872 59.4602 44.5901 63.4786 42.1774C67.497 39.7646 70.799 36.3236 73.0441 32.2092C75.2891 28.0947 76.396 23.4559 76.2504 18.771C76.1048 14.0862 74.7122 9.52498 72.216 5.55786C75.6085 8.08304 78.3632 11.3668 80.26 15.1467C82.1568 18.9266 83.1431 23.0978 83.14 27.3269C83.14 27.9629 83.119 28.5989 83.077 29.2269C85.062 28.4395 87.2095 28.1495 89.3323 28.3823C91.4551 28.6151 93.4887 29.3635 95.2559 30.5624C97.0231 31.7612 98.4703 33.3741 99.4713 35.2605C100.472 37.1468 100.997 39.2494 100.999 41.3849L101 41.3819Z" fill="#D0EDF5"/>
</svg>
