<svg xmlns="http://www.w3.org/2000/svg" width="58.316" height="28.729" viewBox="0 0 58.316 28.729">
    <path id="패스_934" fill="#b7b7b7" d="M.258 50.328C1.067 43 1.664 36.884 2.461 30.792a13.646 13.646 0 0 0-.015-5.644c-.684-2.5 4.174-9.786 7.717-10.761 3.249-.893 3.574-2.644 3.517-5.352-.067-3.22-2.423-4.358-4.737-4.775-1.961-.36-3.414-1.735-5.357-1.882-.735-.055-1.333-.466-1.258-1.3A1.121 1.121 0 0 1 3.8.052 62.892 62.892 0 0 1 12.721 3c3.223 1.517 3.333 4.482 2.826 7.716-.343 2.187 1.4 2.925 3.38 3.25 6.019.987 9.063 4.783 9.691 10.829a15.428 15.428 0 0 1-2.051 9.841c-3.746 6.763-6.606 14.038-9.519 21.229-.876 2.161-1.864 2.816-3.943 2.272-2.516-.657-5.016-1.393-7.559-1.928-3.92-.826-6.374-2.585-5.288-5.881z" data-name="패스 934" transform="rotate(90 29.158 29.158)"/>
</svg>
