<svg xmlns="http://www.w3.org/2000/svg" width="118.146" height="82.125" viewBox="0 0 118.146 82.125">
    <path id="패스_936" fill="#b7b7b7" d="M77.231 53.048c-3.532-.542-8.348-1.475-12.556-4.282-2.562-1.709-5.514-2.31-8.387-3.135-7.741-2.224-15.03-6-23.2-6.758a2.886 2.886 0 0 1-1.422-.765c-3.853-3.3-8.275-3.984-13.3-4.134-6.289-.187-11.676-3.76-16.523-7.553-2.864-2.24-2.3-4.749 1.108-6.308 2.069-.946 1.948-1.616.866-3.289-2.364-3.654-1.685-6 2.293-7.779 1.918-.858 2.546-1.373 1.308-3.529C5.679 2.492 6.7.129 10.178.037c6.5-.171 13.168.1 18.774 4.155 3.073 2.225 6.137 4.169 10.117 3.74 4.122-.445 7.144 2.472 10.812 3.481 9.741 2.679 19.079 6.6 29.176 8.279 7.856 1.308 13.564 5.916 16.018 14.15.835 2.8 1.9 6.849 7.1 5.026 1.172-.411 5.1.7 5.144 2.963.047 2.449-.376 5.527-2.5 7.433-1.907 1.71-4.46.406-5.656-.7-3.446-3.191-6.255-1.58-9.19.363-3.473 2.296-6.999 4.354-12.742 4.121z" data-name="패스 936" transform="rotate(163 55.28 34.202)"/>
</svg>
