<svg width="50" height="50" viewBox="0 0 50 50" fill="none" xmlns="http://www.w3.org/2000/svg">
<g filter="url(#filter0_d)">
<path d="M32.7062 25.5904C31.5787 24.463 29.7508 24.463 28.6233 25.5904C27.4959 26.7179 27.4959 28.5458 28.6233 29.6733L37.8737 38.9236C39.0011 40.0511 40.8291 40.0511 41.9565 38.9236C43.084 37.7962 43.084 35.9682 41.9565 34.8408L32.7062 25.5904Z" fill="url(#paint0_linear)"/>
</g>
<g filter="url(#filter1_d)">
<path d="M10.402 7.22992C8.38243 9.24955 7.00711 11.8227 6.44994 14.624C5.89277 17.4252 6.17877 20.3288 7.27179 22.9675C8.36481 25.6062 10.2158 27.8616 12.5906 29.4484C14.9654 31.0351 17.7574 31.8821 20.6135 31.8821C23.4696 31.8821 26.2616 31.0351 28.6364 29.4484C31.0112 27.8616 32.8622 25.6062 33.9552 22.9675C35.0482 20.3288 35.3342 17.4252 34.777 14.624C34.2199 11.8227 32.8446 9.24955 30.825 7.22992C29.484 5.8889 27.892 4.82514 26.1399 4.09938C24.3878 3.37362 22.51 3.00008 20.6135 3.00008C18.717 3.00008 16.8391 3.37362 15.087 4.09938C13.335 4.82514 11.743 5.8889 10.402 7.22992ZM26.883 23.7119C25.6431 24.9519 24.0633 25.7964 22.3435 26.1385C20.6236 26.4807 18.8409 26.3051 17.2208 25.6341C15.6008 24.9631 14.216 23.8267 13.2418 22.3687C12.2676 20.9106 11.7476 19.1965 11.7476 17.4429C11.7476 15.6894 12.2676 13.9752 13.2418 12.5172C14.216 11.0592 15.6008 9.92278 17.2208 9.25175C18.8409 8.58072 20.6236 8.40519 22.3435 8.74733C24.0633 9.08947 25.6431 9.93393 26.883 11.1739C28.5456 12.8366 29.4796 15.0916 29.4796 17.4429C29.4796 19.7942 28.5456 22.0492 26.883 23.7119Z" fill="url(#paint1_linear)"/>
</g>
<path d="M27.965 24.7918C29.4205 23.3378 30.4121 21.4847 30.8143 19.467C31.2165 17.4493 31.0112 15.3576 30.2244 13.4566C29.4376 11.5556 28.1046 9.93073 26.394 8.78748C24.6835 7.64422 22.6724 7.034 20.615 7.034C18.5576 7.034 16.5464 7.64422 14.8359 8.78748C13.1254 9.93073 11.7924 11.5556 11.0056 13.4566C10.2187 15.3576 10.0134 17.4493 10.4156 19.467C10.8178 21.4847 11.8094 23.3378 13.265 24.7918C15.215 26.7398 17.8586 27.834 20.615 27.834C23.3713 27.834 26.0149 26.7398 27.965 24.7918ZM14.345 11.1718C15.5849 9.93182 17.1646 9.08735 18.8845 8.74521C20.6044 8.40306 22.387 8.5786 24.0071 9.24963C25.6272 9.92066 27.0119 11.057 27.9862 12.5151C28.9604 13.9731 29.4804 15.6873 29.4804 17.4408C29.4804 19.1944 28.9604 20.9085 27.9862 22.3666C27.0119 23.8246 25.6272 24.961 24.0071 25.632C22.387 26.303 20.6044 26.4786 18.8845 26.1364C17.1646 25.7943 15.5849 24.9498 14.345 23.7098C12.6827 22.0472 11.7489 19.7924 11.7489 17.4413C11.7489 15.0903 12.6827 12.8354 14.345 11.1728V11.1718Z" fill="url(#paint2_linear)"/>
<defs>
<filter id="filter0_d" x="20.5819" y="20.5491" width="29.416" height="29.416" filterUnits="userSpaceOnUse" color-interpolation-filters="sRGB">
<feFlood flood-opacity="0" result="BackgroundImageFix"/>
<feColorMatrix in="SourceAlpha" type="matrix" values="0 0 0 0 0 0 0 0 0 0 0 0 0 0 0 0 0 0 127 0"/>
<feOffset dy="3"/>
<feGaussianBlur stdDeviation="3"/>
<feColorMatrix type="matrix" values="0 0 0 0 0 0 0 0 0 0 0 0 0 0 0 0 0 0 0.161 0"/>
<feBlend mode="normal" in2="BackgroundImageFix" result="effect1_dropShadow"/>
<feBlend mode="normal" in="SourceGraphic" in2="effect1_dropShadow" result="shape"/>
</filter>
<filter id="filter1_d" x="0.172485" y="0" width="40.882" height="40.882" filterUnits="userSpaceOnUse" color-interpolation-filters="sRGB">
<feFlood flood-opacity="0" result="BackgroundImageFix"/>
<feColorMatrix in="SourceAlpha" type="matrix" values="0 0 0 0 0 0 0 0 0 0 0 0 0 0 0 0 0 0 127 0"/>
<feOffset dy="3"/>
<feGaussianBlur stdDeviation="3"/>
<feColorMatrix type="matrix" values="0 0 0 0 0 0 0 0 0 0 0 0 0 0 0 0 0 0 0.161 0"/>
<feBlend mode="normal" in2="BackgroundImageFix" result="effect1_dropShadow"/>
<feBlend mode="normal" in="SourceGraphic" in2="effect1_dropShadow" result="shape"/>
</filter>
<linearGradient id="paint0_linear" x1="43.6765" y1="40.6436" x2="29.9383" y2="27.5146" gradientUnits="userSpaceOnUse">
<stop stop-color="#7DDDC5"/>
<stop offset="1" stop-color="#5FAC9A"/>
</linearGradient>
<linearGradient id="paint1_linear" x1="38.607" y1="24.1417" x2="16.4545" y2="1.9892" gradientUnits="userSpaceOnUse">
<stop stop-color="#7DDDC5"/>
<stop offset="1" stop-color="#5FAC9A"/>
</linearGradient>
<linearGradient id="paint2_linear" x1="27.2918" y1="12.7956" x2="43.2662" y2="28.77" gradientUnits="userSpaceOnUse">
<stop stop-color="#7CDBC3"/>
<stop offset="1" stop-color="#5FAC9A"/>
</linearGradient>
</defs>
</svg>
