<svg xmlns="http://www.w3.org/2000/svg" width="49.014" height="46.176" viewBox="0 0 49.014 46.176">
    <path id="패스_939" fill="#0d0d0d" d="M-330.98 411.505c4.4 1.631 6.283 5.383 8.733 8.477.712.9-.165 1.417-1.109 1.557-2.325.343-3.453 2.066-4.4 3.931a9.261 9.261 0 0 1-3.234 3.616c-2.15 1.445-4.245 2.838-2.57 6.245 1.121 2.282-.893 4.259-2.544 5.581-6.2 4.961-12.48 9.822-18.881 14.515-4.564 3.346-5.68 3.037-9-1.4-2.047-2.736-4.19-5.405-6.134-8.213-1.624-2.345-.892-4.387 1.253-6.066 6.249-4.889 12.479-9.8 18.736-14.68 2.547-1.987 5.276-2.88 8.327-1.048a2.342 2.342 0 0 0 .34.229c1.318.49 13.651-6.1 13.686-7.4.059-2.249-2.915-2.709-3.203-5.344z" data-name="패스 939" transform="translate(371.001 -411.505)"/>
</svg>
