<svg xmlns="http://www.w3.org/2000/svg" width="361.735" height="163.817" viewBox="0 0 361.735 163.817">
    <defs>
        <style>
            .cls-2{fill:#fff}.cls-6{stroke:transparent;stroke-miterlimit:10;fill:#596f6a}
        </style>
    </defs>
    <g id="그룹_411" data-name="그룹 411" transform="translate(.5 .5)">
        <path id="패스_947" fill="#d8ddde" d="M191.308 54.866c0 35.513 46.379 6.417 58.342 56.443a208.326 208.326 0 0 1-85.45 34.877c-62.19-43.408-22.255-71.807-38.31-102.409C105.855 5.6 28.26 29.713 9.306 14.9 4.975 11.516 2.128 6.336 0 0h271.453c-34.308 17.8-80.145 4.316-80.145 54.866z" data-name="패스 947" transform="translate(31.811)"/>
        <path id="패스_948" d="M65.487 0A221.485 221.485 0 0 1 0 20.961 221.489 221.489 0 0 0 65.487 0z" class="cls-2" data-name="패스 948" transform="translate(218.762 139.203)"/>
        <path id="패스_949" fill="#b3bbbd" d="M85.455.012c1.772 7.405 2.788 16.545 2.788 27.881a221.49 221.49 0 0 1-65.489 20.962A248.522 248.522 0 0 1 .021 34.891L0 34.877A208.327 208.327 0 0 0 85.453 0z" data-name="패스 949" transform="translate(196.008 111.309)"/>
        <path id="패스_950" d="M0 .022Q1.2.019 2.4 0C1.6.011.8.021 0 .022z" class="cls-2" data-name="패스 950" transform="translate(184.948 162.794)"/>
        <path id="합치기_6" fill="#79948d" stroke="rgba(0,0,0,0)" stroke-miterlimit="10" d="M5.365 0a5.328 5.328 0 0 0-2.941.881l13.622 36.946 143.8 111.184c.435 0 .87.011 1.307.011h.383q2.55 0 5.083-.064c.358-.009.716-.023 1.073-.033q1.994-.058 3.976-.152.66-.03 1.322-.067 1.919-.1 3.829-.242c.411-.031.821-.057 1.231-.089q2.322-.18 4.628-.411c.106-.011.212-.017.315-.029q2.456-.249 4.892-.559c.471-.059.942-.126 1.411-.189q1.71-.225 3.41-.477c.584-.086 1.166-.18 1.75-.271.518-.081 1.031-.17 1.546-.255-62.191-43.408-22.255-71.807-38.31-102.409-12.329-23.493-46.458-23.4-75.3-23.3-18.027.06-33.989.12-41.278-5.577C36.786 11.516 33.938 6.336 31.811 0zM0 5.366v60.206a224.209 224.209 0 0 0 41.795 45.868 208.524 208.524 0 0 0 118.056 37.572L16.046 37.827 2.424.881A5.357 5.357 0 0 0 0 5.366z" data-name="합치기 6"/>
        <path id="패스_952" d="M0 .134Q1.4.076 2.8 0 1.4.077 0 .134z" class="cls-2" data-name="패스 952" transform="translate(193.752 162.484)"/>
        <path id="패스_953" d="M0 .075Q1.324.045 2.647 0 1.324.045 0 .075z" class="cls-2" data-name="패스 953" transform="translate(189.346 162.685)"/>
        <path id="패스_954" d="M0 0c.551.007 1.1.012 1.654.016C1.1.011.552.009 0 0z" class="cls-2" data-name="패스 954" transform="translate(180.702 162.791)"/>
        <path id="패스_955" d="M0 .3C.95.206 1.9.109 2.849 0 1.9.109.95.206 0 .3z" class="cls-2" data-name="패스 955" transform="translate(207.099 161.353)"/>
        <path id="패스_956" d="M0 .325C.862.219 1.724.116 2.584 0 1.724.117.862.219 0 .325z" class="cls-2" data-name="패스 956" transform="translate(211.776 160.802)"/>
        <path id="패스_957" d="M0 .194C.96.135 1.92.072 2.879 0 1.92.072.96.135 0 .194z" class="cls-2" data-name="패스 957" transform="translate(198.168 162.194)"/>
        <path id="패스_958" d="M0 .252C.968.173 1.936.092 2.9 0 1.936.092.968.173 0 .252z" class="cls-2" data-name="패스 958" transform="translate(202.608 161.817)"/>
        <path id="패스_960" d="M4.891 0Q2.448.306 0 .559 2.454.309 4.891 0z" class="cls-2" data-name="패스 960" transform="translate(182.999 147.38)"/>
        <path id="패스_961" d="M3.829 0Q1.915.137 0 .243 1.919.139 3.829 0z" class="cls-2" data-name="패스 961" transform="translate(172.995 148.467)"/>
        <path id="패스_962" d="M1.564.013C1.043.1.522.173 0 .256.517.174 1.03.085 1.545 0l.019.013z" class="cls-2" data-name="패스 962" transform="translate(194.463 146.186)"/>
        <path id="패스_963" d="M3.975 0Q1.989.1 0 .151 1.992.094 3.975 0z" class="cls-2" data-name="패스 963" transform="translate(167.698 148.777)"/>
        <path id="패스_964" d="M3.409 0Q1.707.254 0 .476 1.709.251 3.409 0z" class="cls-2" data-name="패스 964" transform="translate(189.303 146.714)"/>
        <path id="패스_965" d="M.384.065H0h.384C2.083.064 3.777.04 5.466 0 3.773.04 2.079.066.385.065z" class="cls-2" data-name="패스 965" transform="translate(161.157 148.961)"/>
        <path id="패스_966" d="M4.629 0Q2.317.233 0 .411 2.322.23 4.629 0z" class="cls-2" data-name="패스 966" transform="translate(178.055 147.968)"/>
        <path id="패스_967" d="M0 1.383C.9.929 1.8.466 2.7 0 1.8.466.9.929 0 1.383z" class="cls-2" data-name="패스 967" transform="translate(284.252 137.821)"/>
        <path id="패스_968" d="M0 61.206A224.175 224.175 0 0 0 73.089 0 224.173 224.173 0 0 1 0 61.206z" class="cls-2" data-name="패스 968" transform="translate(287.646 76.257)"/>
        <path id="패스_969" fill="#79948d" d="M124.039 36.691q-1.079 2.062-2.2 4.1-.425.769-.858 1.534-.849 1.509-1.727 3c-.421.717-.841 1.436-1.271 2.148s-.858 1.4-1.291 2.106c-.578.934-1.153 1.871-1.746 2.8-.125.2-.257.391-.384.589a210.574 210.574 0 0 1-50.53 54.232c-.106.079-.209.162-.315.241-.688.514-1.387 1.012-2.081 1.518-.908.66-1.815 1.32-2.736 1.966-.185.13-.372.258-.557.387C46.379 61.282 0 90.379 0 54.866 0 4.316 45.837 17.8 80.145 0h52.106c1.512 0 5.045-.092 5.3.4.555.561-.166 3.048 0 4.19a209.268 209.268 0 0 1-13.2 31.5c-.099.2-.207.4-.312.601z" data-name="패스 969" transform="translate(223.119)"/>
        <path id="패스_970" d="M0 54.233A210.575 210.575 0 0 0 50.527 0 209.062 209.062 0 0 1 0 54.233z" class="cls-2" data-name="패스 970" transform="translate(287.15 52.964)"/>
        <path id="패스_971" d="M2.081 0C1.393.513.694 1.013 0 1.518.693 1.012 1.393.514 2.081 0z" class="cls-2" data-name="패스 971" transform="translate(284.754 107.437)"/>
        <path id="패스_972" d="M0 .387C.185.258.372.13.557 0 .371.131.19.268 0 .4z" class="cls-2" data-name="패스 972" transform="translate(281.461 110.922)"/>
        <path id="패스_973" d="M0 .225C.61.155 1.219.075 1.828 0 1.219.075.61.155 0 .225z" class="cls-2" data-name="패스 973" transform="translate(209.948 161.128)"/>
        <path id="패스_974" d="M0 .125C.52.087 1.04.042 1.56 0 1.04.042.52.087 0 .125z" class="cls-2" data-name="패스 974" transform="translate(201.048 162.069)"/>
        <path id="패스_975" d="M0 .068Q.879.038 1.758 0 .879.037 0 .068z" class="cls-2" data-name="패스 975" transform="translate(191.994 162.618)"/>
        <path id="패스_976" d="M0 .1L1.621 0 0 .1z" class="cls-2" data-name="패스 976" transform="translate(196.548 162.388)"/>
        <path id="패스_977" d="M0 .162C.53.111 1.059.055 1.589 0 1.059.055.53.111 0 .162z" class="cls-2" data-name="패스 977" transform="translate(205.51 161.655)"/>
        <path id="패스_978" d="M0 .034Q1 .021 1.994 0 1 .022 0 .034z" class="cls-2" data-name="패스 978" transform="translate(187.352 162.76)"/>
        <path id="패스_979" d="M4.4 0Q2.2.341 0 .638 2.2.341 4.4 0z" class="cls-2" data-name="패스 979" transform="translate(214.36 160.164)"/>
        <path id="패스_980" d="M1.842.017C1.227.018.614 0 0 0c.864.007 1.729.012 2.593.01-.25.001-.501.007-.751.007z" class="cls-2" data-name="패스 980" transform="translate(182.355 162.807)"/>
        <path id="패스_981" d="M139.449 51.725A222.313 222.313 0 0 1 0 0c.179.126.362.248.541.373A222.394 222.394 0 0 0 102.328 48a223.47 223.47 0 0 0 37.121 3.725z" class="cls-2" data-name="패스 981" transform="translate(41.253 111.066)"/>
        <path id="패스_984" d="M22.734 13.964A248.454 248.454 0 0 1 0 0a248.52 248.52 0 0 0 22.735 13.965z" class="cls-2" data-name="패스 984" transform="translate(196.027 146.2)"/>
        <path id="합치기_5" d="M101.787 47.627a223.621 223.621 0 0 0 37.12 3.724q.826.01 1.654.015c.864.008 1.728.013 2.593.011.8 0 1.6-.011 2.4-.023.665-.008 1.329-.019 2-.033q1.323-.03 2.647-.076c.587-.02 1.171-.043 1.759-.068q1.4-.058 2.8-.133c.54-.029 1.079-.064 1.62-.1.96-.06 1.921-.122 2.88-.194.52-.039 1.04-.084 1.56-.126.968-.078 1.935-.16 2.9-.251.531-.051 1.059-.108 1.589-.161.95-.1 1.9-.194 2.849-.3.61-.069 1.219-.15 1.828-.225.863-.106 1.724-.209 2.585-.326q2.2-.3 4.4-.637l-49.9-4.187-9-6.963A208.522 208.522 0 0 1 0 0a222.408 222.408 0 0 0 101.787 47.627zM152.668 35c-.583.092-1.166.184-1.751.271q-1.7.253-3.409.476c-.47.063-.94.13-1.412.19q-2.444.305-4.891.559l-.315.029q-2.312.233-4.628.411c-.41.032-.821.059-1.232.088q-1.914.138-3.83.243c-.44.023-.88.047-1.322.067q-1.987.1-3.974.152c-.358.011-.715.024-1.074.033-1.693.039-3.388.065-5.081.065h-.383c-.434 0-.867 0-1.3-.008l9 6.963 49.9 4.186a248.568 248.568 0 0 1-22.735-13.965c-.519.085-1.041.16-1.563.24z" class="cls-6" data-name="합치기 5" transform="translate(41.795 111.44)"/>
        <path id="패스_986" d="M.315 0C.21.011.1.018 0 .029.1.018.21.011.315 0z" class="cls-2" data-name="패스 986" transform="translate(182.684 147.939)"/>
        <path id="패스_987" d="M1.322 0C.882.023.442.046 0 .067.441.046.882.023 1.322 0z" class="cls-2" data-name="패스 987" transform="translate(171.673 148.71)"/>
        <path id="패스_988" d="M1.075 0C.717.011.359.024 0 .033.358.024.717.011 1.075 0z" class="cls-2" data-name="패스 988" transform="translate(166.623 148.928)"/>
        <path id="패스_989" d="M1.231 0C.821.032.41.059 0 .088.41.059.821.032 1.231 0z" class="cls-2" data-name="패스 989" transform="translate(176.825 148.379)"/>
        <path id="패스_990" d="M1.412 0C.942.063.472.13 0 .19.471.13.942.063 1.412 0z" class="cls-2" data-name="패스 990" transform="translate(187.89 147.19)"/>
        <path id="패스_991" d="M1.751 0C1.168.092.584.184 0 .272.584.184 1.167.092 1.751 0z" class="cls-2" data-name="패스 991" transform="translate(192.712 146.442)"/>
        <path id="패스_992" d="M9.009 6.966l49.9 4.185L9.008 6.966 0 0c.435 0 .869.011 1.305.011C.872.01.438.011.005 0z" class="cls-2" data-name="패스 992" transform="translate(159.852 149.012)"/>
        <path id="패스_994" d="M0 .357C.231.237.465.121.7 0 .465.121.231.237 0 .357z" class="cls-2" data-name="패스 994" transform="translate(286.951 137.463)"/>
        <path id="패스_997" d="M2.789 27.88C2.788 16.547 1.772 7.407 0 0c1.774 7.405 2.789 16.545 2.789 27.88z" class="cls-2" data-name="패스 997" transform="translate(281.463 111.32)"/>
        <path id="합치기_7" d="M66.011 31.444c-.1.2-.212.4-.316.6q-1.082 2.061-2.205 4.1c-.283.513-.571 1.023-.858 1.534q-.849 1.51-1.726 3c-.421.718-.842 1.435-1.272 2.148s-.857 1.406-1.29 2.106c-.578.935-1.155 1.87-1.746 2.8-.127.2-.257.391-.383.589a209.079 209.079 0 0 1-50.528 54.231c-.107.08-.21.162-.315.242-.687.512-1.387 1.012-2.082 1.518-.908.661-1.817 1.319-2.736 1.966-.186.132-.367.269-.555.4H0c1.773 7.4 2.789 16.544 2.789 27.878L79.272 15.644V.722A5.406 5.406 0 0 0 79.218 0a208.1 208.1 0 0 1-13.207 31.444zM2.789 134.557c.9-.454 1.8-.918 2.7-1.383.232-.121.466-.235.7-.358a224.184 224.184 0 0 0 73.083-61.203V15.65z" class="cls-6" data-name="합치기 7" transform="translate(281.463 4.644)"/>
        <path id="패스_999" d="M.384 0C.258.2.127.391 0 .589.127.391.258.2.384 0z" class="cls-2" data-name="패스 999" transform="translate(337.677 52.375)"/>
        <path id="패스_1000" d="M.315 0C.21.079.106.162 0 .241.106.162.21.079.315 0z" class="cls-2" data-name="패스 1000" transform="translate(286.835 107.196)"/>
        <path id="패스_1001" d="M2.736 0C1.828.661.919 1.32 0 1.966.92 1.32 1.828.66 2.736 0z" class="cls-2" data-name="패스 1001" transform="translate(282.018 108.955)"/>
        <path id="패스_1002" d="M76.483 0L0 118.912z" class="cls-2" data-name="패스 1002" transform="translate(284.252 20.289)"/>
    </g>
</svg>
