<svg xmlns="http://www.w3.org/2000/svg" width="115.378" height="101" viewBox="0 0 115.378 101">
    <defs>
        <radialGradient id="radial-gradient" cx=".5" cy=".5" r=".5" gradientUnits="objectBoundingBox">
            <stop offset="0" stop-color="#fdffe2"/>
            <stop offset="1" stop-color="#77d6be"/>
        </radialGradient>
    </defs>
    <g id="그룹_476" data-name="그룹 476" transform="translate(50 -65)">
        <circle id="타원_68" cx="50.5" cy="50.5" r="50.5" fill="url(#radial-gradient)" data-name="타원 68" opacity="0.32" transform="translate(-50 65)"/>
        <path id="패스_1023" fill="#77d6be" d="M2240.767 2803.01l-1.4-2.226a1.977 1.977 0 0 0-.443-.483 15.907 15.907 0 0 0 .282-2.288c0-.057.013-.11.015-.166a20.708 20.708 0 0 0-.268-3.977c-1.1-6.851-5.409-14.748-12.181-22.69-.009-.01-.031-.025-.043-.037a1.066 1.066 0 0 0-.092-.074c-.014.486-.027.972-.054 1.455 5.037 6.037 8.629 12.048 10.38 17.427a23.12 23.12 0 0 1 1.259 7.862 15.779 15.779 0 0 1-.217 2.06 2 2 0 0 0-2.03.911l-1.392 2.226a1.99 1.99 0 0 0 .818 2.848 17.358 17.358 0 0 1-9.269 5.676 34.766 34.766 0 0 1-6.5 1.117 3.978 3.978 0 0 0-7.918.023c-1.107-.073-2.232-.166-3.4-.3-1.429-.165-2.89-.384-4.369-.636a110.157 110.157 0 0 1-18.414-4.923 159.2 159.2 0 0 1-47.892-27.651 113.466 113.466 0 0 1-11.917-11.662q-.03.734-.038 1.473c.175.195.354.391.532.586.861.947 1.763 1.9 2.692 2.842 1.019 1.04 2.068 2.079 3.165 3.115q2.558 2.415 5.388 4.8a153.221 153.221 0 0 0 18.53 13.313c.663.407 1.335.81 2.01 1.211.623.371 1.241.745 1.874 1.11q3.207 1.851 6.411 3.517c1.789.93 3.574 1.807 5.352 2.65q1.234.584 2.461 1.138a140.848 140.848 0 0 0 15.265 5.9q1.816.579 3.6 1.086 2.919.829 5.734 1.469c1.352.307 2.689.591 4 .831a77.926 77.926 0 0 0 9.035 1.13 3.982 3.982 0 0 0 7.882-.03c.871-.071 1.734-.152 2.559-.271.213-.031.422-.065.631-.1a25.492 25.492 0 0 0 9.212-3.17 16.716 16.716 0 0 0 1.469-1 15.228 15.228 0 0 0 1.909-1.685 14.056 14.056 0 0 0 1.1-1.346h2.564a2 2 0 0 0 1.7-3.06z" data-name="패스 1023" transform="translate(-2175.694 -2654.503)" style="isolation:isolate" opacity="0.59"/>
    </g>
</svg>
