<svg width="60" height="21" viewBox="0 0 60 21" fill="none" xmlns="http://www.w3.org/2000/svg">
<path d="M18.8586 15.1445C19.4735 15.1445 19.5643 15.6285 19.5643 16.5047C19.5643 17.4036 19.4735 17.8421 18.8586 17.8421H0V15.1453L18.8586 15.1445ZM13.2781 12.0532V5.02197C13.2781 4.60708 13.0965 4.51515 12.7774 4.51515H2.55114V1.81836H13.4823C14.2265 1.94073 14.9083 2.31329 15.4177 2.87593C15.9035 3.31149 16.2387 3.89309 16.3742 4.5355V12.0507C16.3742 12.5811 15.8276 12.7194 14.8028 12.7194C13.848 12.7243 13.2781 12.586 13.2781 12.0556V12.0532Z" fill="white"/>
<path d="M21.8638 4.79484H28.7423V3.01976H21.8638V0.530416H30.6794C31.3626 0.530416 31.7725 0.855816 31.7725 1.56764V7.285H24.8923V8.64519C24.8828 8.71513 24.8891 8.78634 24.9106 8.8535C24.9321 8.92066 24.9683 8.98203 25.0165 9.03303C25.0647 9.08403 25.1237 9.12334 25.1891 9.14803C25.2544 9.17272 25.3244 9.18215 25.3939 9.17561H32.7274C33.2514 9.17561 33.3423 9.54413 33.3423 10.3959C33.3423 11.272 33.2514 11.6641 32.7274 11.6641H24.7107C23.9655 11.527 23.2854 11.1463 22.7744 10.5805C22.3021 10.1315 21.9832 9.542 21.8638 8.89738V4.79484ZM38.5562 18.3951C39.057 18.3951 39.1486 18.9256 39.1486 19.709C39.1486 20.5615 39.0578 21 38.5562 21H28.2408C27.5097 20.8766 26.8425 20.5033 26.3504 19.9424C25.8622 19.5183 25.526 18.943 25.3939 18.3057V13.6263H28.4916V17.8883C28.4916 18.2341 28.674 18.3951 29.0156 18.3951H38.5562ZM38.6929 14.0152C38.6929 14.6147 37.9872 14.7067 37.1441 14.7067C36.1651 14.7067 35.5952 14.544 35.5952 14.0152V0H38.6929V14.0152Z" fill="white"/>
<path d="M59.9991 19.2715C59.9991 19.8019 59.4301 19.9402 58.4053 19.9402C57.4488 19.9402 56.8564 19.8255 56.8564 19.2951V0.230469H59.9991V19.2715Z" fill="white"/>
<path d="M49.3154 10.951V13.9472C49.3154 14.0354 49.3501 14.12 49.4117 14.1824C49.4734 14.2448 49.557 14.2799 49.6442 14.2799H52.3544C52.5381 14.2808 52.7184 14.2295 52.8747 14.1319C53.031 14.0342 53.1571 13.8941 53.2386 13.7275L53.6581 12.8782L53.7498 10.9502L49.3154 10.951Z" fill="white"/>
<path d="M50.7129 2.83398C50.6257 2.68908 50.503 2.56944 50.3567 2.48663C50.2104 2.40383 50.0454 2.36067 49.8778 2.36134H49.5024L48.0146 3.95908L49.4036 6.27758L51.81 4.73191L50.7129 2.83398Z" fill="white"/>
<path d="M42.8764 6.78906L41.5952 9.43787C41.5071 9.58808 41.4569 9.7579 41.4489 9.93238C41.4409 10.1069 41.4754 10.2807 41.5494 10.4385L41.9239 10.951L44.0547 11.4554L45.2756 8.59181L42.8764 6.78906Z" fill="white"/>
<path d="M48.6047 12.3822L46.6315 10.3851C46.5864 10.3365 46.5278 10.3029 46.4635 10.2888C46.3992 10.2746 46.3322 10.2805 46.2712 10.3057C46.2103 10.3309 46.1583 10.3742 46.1222 10.4299C46.0861 10.4856 46.0675 10.5511 46.0689 10.6177V10.9504H41.9175C42.063 11.2482 43.2766 13.6952 43.2927 13.727C43.374 13.8937 43.5 14.034 43.6564 14.1317C43.8128 14.2293 43.9931 14.2805 44.1768 14.2793H46.0745V14.6153C46.0731 14.6819 46.0917 14.7474 46.1278 14.8031C46.1639 14.8588 46.2159 14.9021 46.2768 14.9273C46.3378 14.9525 46.4048 14.9584 46.4692 14.9443C46.5335 14.9301 46.5921 14.8965 46.6371 14.848L48.6104 12.8508C48.6411 12.8201 48.6654 12.7834 48.6819 12.7429C48.6983 12.7024 48.7065 12.6591 48.706 12.6153C48.7054 12.5716 48.6962 12.5284 48.6788 12.4883C48.6614 12.4483 48.6362 12.4122 48.6047 12.3822Z" fill="white"/>
<path d="M49.5004 2.36134H46.655C46.4874 2.36067 46.3225 2.40383 46.1762 2.48663C46.0299 2.56944 45.9072 2.68908 45.82 2.83398L44.7477 4.5871L44.4913 4.4244C44.4356 4.39043 44.3712 4.374 44.3063 4.37717C44.2413 4.38034 44.1788 4.40298 44.1266 4.44221C44.0744 4.48145 44.0348 4.53551 44.0131 4.59753C43.9913 4.65954 43.9882 4.72669 44.0043 4.79048L44.6625 7.45392C44.6724 7.49618 44.6905 7.53603 44.7158 7.5711C44.7411 7.60617 44.7731 7.63576 44.8099 7.65813C44.8466 7.68049 44.8875 7.69518 44.93 7.70133C44.9724 7.70747 45.0157 7.70494 45.0572 7.6939L47.6887 7.02846C47.7516 7.01276 47.8086 6.97854 47.8523 6.93012C47.896 6.88169 47.9246 6.82124 47.9344 6.75638C47.9442 6.69153 47.9348 6.62519 47.9074 6.56574C47.88 6.50629 47.8358 6.45642 47.7803 6.42239L47.2868 6.12301C47.5046 5.75774 49.2825 2.73555 49.5004 2.36134Z" fill="white"/>
<path d="M54.939 9.43653L53.8177 7.1473L54.2485 6.88536C54.3044 6.8515 54.3491 6.80161 54.3769 6.74201C54.4047 6.68241 54.4144 6.61579 54.4048 6.5506C54.3951 6.48541 54.3666 6.42458 54.3227 6.37585C54.2789 6.32711 54.2217 6.29266 54.1585 6.27685L51.527 5.61058C51.4848 5.5993 51.4407 5.59668 51.3975 5.6029C51.3542 5.60912 51.3126 5.62405 51.2752 5.64679C51.2377 5.66954 51.2052 5.69965 51.1794 5.73535C51.1536 5.77104 51.1352 5.81161 51.1251 5.85464L50.4668 8.51807C50.4511 8.58189 50.4544 8.64901 50.4763 8.71094C50.4982 8.77287 50.5378 8.82684 50.59 8.86602C50.6422 8.9052 50.7047 8.92783 50.7696 8.93106C50.8345 8.93428 50.899 8.91797 50.9547 8.88416L51.3775 8.62708L53.6546 12.8793C54.0492 12.0796 53.9198 12.5824 54.9799 10.4388C55.0563 10.2815 55.0926 10.1074 55.0854 9.93238C55.0783 9.75731 55.0279 9.58685 54.939 9.43653Z" fill="white"/>
</svg>
