<svg width="46" height="46" viewBox="0 0 46 46" fill="none" xmlns="http://www.w3.org/2000/svg">
<g filter="url(#filter0_d)">
<path d="M30.5533 23.826C29.5101 22.7866 27.8188 22.7866 26.7756 23.826C25.7324 24.8654 25.7324 26.5506 26.7756 27.59L35.3347 36.1179C36.3779 37.1573 38.0693 37.1573 39.1124 36.1179C40.1556 35.0785 40.1556 33.3933 39.1124 32.3539L30.5533 23.826Z" fill="white"/>
</g>
<g filter="url(#filter1_d)">
<path d="M9.91345 6.89916C8.0448 8.76106 6.77225 11.1332 6.25672 13.7157C5.74118 16.2982 6.00582 18.975 7.01716 21.4077C8.0285 23.8403 9.74113 25.9195 11.9385 27.3823C14.1358 28.8452 16.7192 29.626 19.3619 29.626C22.0046 29.626 24.5879 28.8452 26.7853 27.3823C28.9826 25.9195 30.6952 23.8403 31.7066 21.4077C32.7179 18.975 32.9826 16.2982 32.467 13.7157C31.9515 11.1332 30.6789 8.76106 28.8103 6.89916C27.5695 5.66288 26.0965 4.6822 24.4753 4.01312C22.8542 3.34405 21.1166 2.99967 19.3619 2.99967C17.6071 2.99967 15.8696 3.34405 14.2484 4.01312C12.6272 4.6822 11.1542 5.66288 9.91345 6.89916ZM25.1629 22.0939C24.0156 23.2371 22.5539 24.0156 20.9626 24.331C19.3712 24.6464 17.7218 24.4846 16.2227 23.866C14.7237 23.2473 13.4425 22.1997 12.5411 20.8556C11.6396 19.5114 11.1585 17.9311 11.1585 16.3145C11.1585 14.6979 11.6396 13.1176 12.5411 11.7735C13.4425 10.4293 14.7237 9.38171 16.2227 8.76309C17.7218 8.14447 19.3712 7.98264 20.9626 8.29806C22.5539 8.61349 24.0156 9.39199 25.1629 10.5351C26.7012 12.068 27.5654 14.1469 27.5654 16.3145C27.5654 18.4822 26.7012 20.5611 25.1629 22.0939Z" fill="white"/>
</g>
<path d="M26.1639 23.09C27.5107 21.7495 28.4282 20.0411 28.8003 18.181C29.1725 16.3209 28.9825 14.3926 28.2545 12.6401C27.5264 10.8875 26.2931 9.38953 24.7104 8.33557C23.1277 7.2816 21.2668 6.71904 19.3631 6.71904C17.4595 6.71904 15.5986 7.2816 14.0159 8.33557C12.4332 9.38953 11.1998 10.8875 10.4718 12.6401C9.74373 14.3926 9.55376 16.3209 9.92589 18.181C10.298 20.0411 11.2155 21.7495 12.5623 23.09C14.3667 24.8858 16.8127 25.8945 19.3631 25.8945C21.9135 25.8945 24.3595 24.8858 26.1639 23.09ZM13.5616 10.5337C14.7089 9.39054 16.1706 8.61202 17.7619 8.2966C19.3533 7.98118 21.0028 8.14301 22.5018 8.76163C24.0008 9.38025 25.2821 10.4279 26.1835 11.772C27.0849 13.1162 27.5661 14.6965 27.5661 16.3131C27.5661 17.9297 27.0849 19.51 26.1835 20.8541C25.2821 22.1983 24.0008 23.2459 22.5018 23.8645C21.0028 24.4831 19.3533 24.645 17.7619 24.3295C16.1706 24.0141 14.7089 23.2356 13.5616 22.0925C12.0236 20.5597 11.1595 18.481 11.1595 16.3135C11.1595 14.1461 12.0236 12.0674 13.5616 10.5346V10.5337Z" fill="white"/>
<defs>
<filter id="filter0_d" x="19.9932" y="20.0469" width="25.9016" height="25.851" filterUnits="userSpaceOnUse" color-interpolation-filters="sRGB">
<feFlood flood-opacity="0" result="BackgroundImageFix"/>
<feColorMatrix in="SourceAlpha" type="matrix" values="0 0 0 0 0 0 0 0 0 0 0 0 0 0 0 0 0 0 127 0"/>
<feOffset dy="3"/>
<feGaussianBlur stdDeviation="3"/>
<feColorMatrix type="matrix" values="0 0 0 0 0 0 0 0 0 0 0 0 0 0 0 0 0 0 0.161 0"/>
<feBlend mode="normal" in2="BackgroundImageFix" result="effect1_dropShadow"/>
<feBlend mode="normal" in="SourceGraphic" in2="effect1_dropShadow" result="shape"/>
</filter>
<filter id="filter1_d" x="0" y="0" width="38.7237" height="38.6263" filterUnits="userSpaceOnUse" color-interpolation-filters="sRGB">
<feFlood flood-opacity="0" result="BackgroundImageFix"/>
<feColorMatrix in="SourceAlpha" type="matrix" values="0 0 0 0 0 0 0 0 0 0 0 0 0 0 0 0 0 0 127 0"/>
<feOffset dy="3"/>
<feGaussianBlur stdDeviation="3"/>
<feColorMatrix type="matrix" values="0 0 0 0 0 0 0 0 0 0 0 0 0 0 0 0 0 0 0.161 0"/>
<feBlend mode="normal" in2="BackgroundImageFix" result="effect1_dropShadow"/>
<feBlend mode="normal" in="SourceGraphic" in2="effect1_dropShadow" result="shape"/>
</filter>
</defs>
</svg>
