<svg xmlns="http://www.w3.org/2000/svg" id="world-financial" width="179.013" height="178.988" viewBox="0 0 179.013 178.988">
    <defs>
        <style>
            .cls-3{fill:#72d1b9}.cls-4{fill:#5fac9a}
        </style>
    </defs>
    <path id="패스_893" fill="#e6f8fc" d="M210.351 125.651a89.358 89.358 0 0 1-36.2 71.892l-31.481 10.93-6.141-2.575-95.7-40.1a88.771 88.771 0 0 1-7.986-23.7L53.426 86.27l57.657-44.578 3.61-2.792 20.007-1.678a88.8 88.8 0 0 1 26.255 8.4l49.087 76.318.28 2.488.024.837v.383z" data-name="패스 893" transform="translate(-31.338 -36.155)"/>
    <path id="패스_894" fill="#d0edf5" d="M330.251 125.651a89.358 89.358 0 0 1-36.2 71.892l-31.481 10.93-6.141-2.575a83.974 83.974 0 0 0-24.771-164.21h-.675l3.61-2.792 20.007-1.674a88.8 88.8 0 0 1 26.255 8.4l49.087 76.318.28 2.488.024.837v.383z" data-name="패스 894" transform="translate(-151.237 -36.155)"/>
    <path id="패스_895" d="M132.389 35.587a99.591 99.591 0 0 0-9.115 5.6c-24.944 17.405-8.93 28.793-15.367 41.062-8.033 15.306-39.142 5.639-46.741 11.578-10.138 7.921 0 40.373-30.631 46.632A89.579 89.579 0 0 1 132.389 35.587z" class="cls-3" data-name="패스 895" transform="translate(-29.026 -34.52)"/>
    <path id="패스_904" d="M246.463 278.106c-2.82 6.452-23.187 4.978-28.166 0s-6.505-25.468 0-28.162c9.203-3.81 32.154 19.038 28.166 28.162z" class="cls-3" data-name="패스 904" transform="translate(-140.943 -164.624)"/>
    <path id="패스_905" d="M186.393 358.261A89.558 89.558 0 0 1 53.07 326.516c35.264 0 13.467-23.7 29.818-23.7 21.848 0 19.028 35.464 30.963 41.624 11.789 6.089 20.6-6.666 37.357-6.666 12.733 0 12.871 11.1 21.556 16.96 3.116 2.097 7.336 3.527 13.629 3.527z" class="cls-3" data-name="패스 905" transform="translate(-43.576 -196.873)"/>
    <path id="패스_906" d="M369.116 138.146c-.225-7.132-6.824-4.059-14.735-4.174-5.806-.083-12.318-1.887-17.535-10.7-12.279-20.739-41.631-5.347-41.631-30.959 0-14.239 18.6-2.571 23.392-22.634a48.376 48.376 0 0 0 1.118-11.179 89.475 89.475 0 0 1 49.391 79.646z" class="cls-3" data-name="패스 906" transform="translate(-190.106 -49.033)"/>
    <path id="패스_907" d="M158.786 40.054a83.6 83.6 0 0 0-48.226 15.219 89.134 89.134 0 0 1 57.309-20.751 90.114 90.114 0 0 1 13.858 1.066 99.6 99.6 0 0 0-9.115 5.6 84.407 84.407 0 0 0-13.827-1.133z" class="cls-4" data-name="패스 907" transform="translate(-78.365 -34.521)"/>
    <path id="패스_908" d="M207.62 434.3c3.116 2.1 7.334 3.53 13.629 3.53a89.528 89.528 0 0 1-110.579-3.116 84.022 84.022 0 0 0 96.95-.415z" class="cls-4" data-name="패스 908" transform="translate(-78.432 -276.439)"/>
    <path id="패스_909" d="M404.965 138.146c-.225-7.132-6.824-4.059-14.735-4.174a83.875 83.875 0 0 0-35.773-64.29 48.375 48.375 0 0 0 1.117-11.182 89.475 89.475 0 0 1 49.391 79.646z" class="cls-4" data-name="패스 909" transform="translate(-225.955 -49.033)"/>
</svg>
