<svg xmlns="http://www.w3.org/2000/svg" id="environment" width="176.226" height="67.574" viewBox="0 0 176.226 67.574">
    <defs>
        <style>
            .cls-1{fill:#f1d0a4}.cls-2{fill:#edbb87}
        </style>
    </defs>
    <path id="패스_848" d="M378.487 371.355a8.511 8.511 0 0 1 12.036 0l14.443 14.445a8.511 8.511 0 0 1-12.036 12.036l-14.443-14.443a8.511 8.511 0 0 1 0-12.038z" class="cls-1" data-name="패스 848" transform="translate(-231.233 -368.862)"/>
    <path id="패스_849" d="M406.377 392.285a8.511 8.511 0 0 1-12.036 0L379.9 377.842a8.48 8.48 0 0 1-1.824-2.718 8.505 8.505 0 0 0 .419 11.573l14.444 14.444a8.509 8.509 0 0 0 13.86-9.318c-.139.156-.274.314-.422.462z" class="cls-2" data-name="패스 849" transform="translate(-231.238 -372.168)"/>
    <path id="패스_850" d="M342.064 385.924a8.511 8.511 0 0 1 12.036 0l24.76 24.76a8.511 8.511 0 0 1-12.036 12.036l-24.76-24.76a8.511 8.511 0 0 1 0-12.036z" class="cls-1" data-name="패스 850" transform="translate(-212.005 -376.553)"/>
    <path id="패스_851" d="M379.334 418a8.511 8.511 0 0 1-12.036 0l-24.76-24.76a8.506 8.506 0 0 1-1.467-1.972 8.508 8.508 0 0 0 1 10.827l24.76 24.76a8.51 8.51 0 0 0 13.5-10.064 8.462 8.462 0 0 1-.997 1.209z" class="cls-2" data-name="패스 851" transform="translate(-212.009 -380.693)"/>
    <path id="패스_852" d="M316.569 411.42a8.511 8.511 0 0 1 12.036 0l24.76 24.76a8.511 8.511 0 0 1-12.036 12.036l-24.76-24.76a8.511 8.511 0 0 1 0-12.036z" class="cls-1" data-name="패스 852" transform="translate(-198.546 -390.013)"/>
    <path id="패스_853" d="M353.371 443.927a8.511 8.511 0 0 1-12.036 0l-24.76-24.76a8.514 8.514 0 0 1-1.242-1.59 8.507 8.507 0 0 0 1.242 10.445l24.76 24.76a8.507 8.507 0 0 0 13.278-10.445 8.516 8.516 0 0 1-1.242 1.59z" class="cls-2" data-name="패스 853" transform="translate(-198.552 -394.579)"/>
    <path id="패스_854" d="M302 447.842a8.511 8.511 0 0 1 12.036 0l14.443 14.443a8.511 8.511 0 0 1-12.036 12.036L302 459.878a8.511 8.511 0 0 1 0-12.036z" class="cls-1" data-name="패스 854" transform="translate(-190.855 -409.241)"/>
    <path id="패스_855" d="M317.905 468.676l-14.443-14.444a8.481 8.481 0 0 1-1.83-2.731 8.5 8.5 0 0 0 .368 11.625l14.443 14.444a8.51 8.51 0 0 0 13.867-9.306 8.522 8.522 0 0 1-12.405.412z" class="cls-2" data-name="패스 855" transform="translate(-190.86 -412.489)"/>
    <path id="패스_856" d="M98.327 371.355a8.511 8.511 0 0 0-12.036 0L71.847 385.8a8.511 8.511 0 0 0 12.036 12.036l14.443-14.443a8.511 8.511 0 0 0 .001-12.038z" class="cls-1" data-name="패스 856" transform="translate(-69.354 -368.862)"/>
    <path id="패스_857" d="M98.832 375.31a8.512 8.512 0 0 1-1.232 1.574l-14.443 14.444a8.511 8.511 0 0 1-12.036 0c-.177-.177-.34-.363-.5-.551a8.507 8.507 0 0 0 13.268 10.461l14.443-14.444a8.508 8.508 0 0 0 .5-11.484z" class="cls-2" data-name="패스 857" transform="translate(-69.361 -372.266)"/>
    <path id="패스_858" d="M123.213 385.924a8.511 8.511 0 0 0-12.036 0l-24.76 24.76a8.511 8.511 0 0 0 12.036 12.036l24.76-24.76a8.511 8.511 0 0 0 0-12.036z" class="cls-1" data-name="패스 858" transform="translate(-77.045 -376.553)"/>
    <path id="패스_859" d="M123.217 392.438L98.457 417.2a8.484 8.484 0 0 1-13.024-1.2 8.508 8.508 0 0 0 13.024 10.841l24.76-24.76a8.508 8.508 0 0 0 .988-10.841 8.542 8.542 0 0 1-.988 1.198z" class="cls-2" data-name="패스 859" transform="translate(-77.05 -380.677)"/>
    <path id="패스_860" d="M148.709 411.42a8.511 8.511 0 0 0-12.036 0l-24.76 24.76a8.511 8.511 0 1 0 12.036 12.036l24.76-24.76a8.511 8.511 0 0 0 0-12.036z" class="cls-1" data-name="패스 860" transform="translate(-90.506 -390.013)"/>
    <path id="패스_861" d="M148.85 414.52a8.512 8.512 0 0 1-1.308 1.7l-24.76 24.76a8.511 8.511 0 0 1-12.036 0c-.048-.048-.088-.1-.134-.148a8.506 8.506 0 0 0 13.344 10.333l24.76-24.76a8.506 8.506 0 0 0 .134-11.888z" class="cls-2" data-name="패스 861" transform="translate(-90.512 -392.965)"/>
    <path id="패스_862" d="M174.814 447.842a8.511 8.511 0 0 0-12.036 0l-14.444 14.443a8.511 8.511 0 0 0 12.036 12.036l14.443-14.443a8.511 8.511 0 0 0 .001-12.036z" class="cls-1" data-name="패스 862" transform="translate(-109.733 -409.241)"/>
    <path id="패스_863" d="M160.377 468.256a8.457 8.457 0 0 1-12.9-1.021 8.506 8.506 0 0 0 12.9 11.015l14.444-14.443a8.506 8.506 0 0 0 .86-11.015c-.797 1.145-14.275 14.435-15.304 15.464z" class="cls-2" data-name="패스 863" transform="translate(-109.739 -413.17)"/>
</svg>
