<svg xmlns="http://www.w3.org/2000/svg" width="42.35" height="50.733" viewBox="0 0 42.35 50.733">
    <defs>
        <style>
            .cls-2{fill:#5fac9a}
        </style>
    </defs>
    <g id="그룹_446" data-name="그룹 446" transform="translate(-20536.996 1870)">
        <path id="패스_1005" fill="#93e3cf" d="M207.715 43.663h6.223V37.44a14.951 14.951 0 0 0-14.951-14.951H194.1a1.339 1.339 0 0 0-1.339 1.339v4.884a14.951 14.951 0 0 0 14.954 14.951z" data-name="패스 1005" transform="translate(20344.232 -1884.959)"/>
        <g id="그룹_414" data-name="그룹 414" transform="translate(20546.674 -1852.792)">
            <path id="패스_835" d="M233.162 65.475a2.579 2.579 0 0 1-1.829-.758l-8.909-8.909a2.587 2.587 0 1 1 3.658-3.659l8.909 8.909a2.587 2.587 0 0 1-1.829 4.417z" class="cls-2" data-name="패스 835" transform="translate(-221.665 -51.391)"/>
        </g>
        <g id="그룹_415" data-name="그룹 415" transform="translate(20555.584 -1870)">
            <path id="패스_836" fill="#72d1b9" d="M262.223 21.174H256v-6.223A14.951 14.951 0 0 1 270.951 0h4.884a1.339 1.339 0 0 1 1.339 1.339v4.884a14.951 14.951 0 0 1-14.951 14.951z" data-name="패스 836" transform="translate(-253.413)"/>
            <g id="그룹_379" data-name="그룹 379" transform="translate(0 10.726)">
                <path id="패스_837" d="M250.861 45.069a2.587 2.587 0 0 1-1.716-4.524l8.878-7.861a2.587 2.587 0 0 1 3.43 3.874l-8.878 7.861a2.576 2.576 0 0 1-1.714.65z" class="cls-2" data-name="패스 837" transform="translate(-248.273 -32.034)"/>
            </g>
        </g>
        <g id="그룹_416" data-name="그룹 416" transform="translate(20555.584 -1851.498)">
            <g id="그룹_381" data-name="그룹 381">
                <path id="패스_838" d="M250.861 87.486a2.587 2.587 0 0 1-2.587-2.587V57.842a2.587 2.587 0 0 1 5.174 0V84.9a2.587 2.587 0 0 1-2.587 2.586z" class="cls-2" data-name="패스 838" transform="translate(-248.274 -55.255)"/>
            </g>
        </g>
    </g>
</svg>
